<?xml version="1.0" standalone="no"?><!DOCTYPE svg PUBLIC "-//W3C//DTD SVG 1.1//EN" "http://www.w3.org/Graphics/SVG/1.1/DTD/svg11.dtd"><svg t="1709392866408" class="icon" viewBox="0 0 1024 1024" version="1.1" xmlns="http://www.w3.org/2000/svg" p-id="2449" xmlns:xlink="http://www.w3.org/1999/xlink" width="16" height="16"><path d="M163.541333 170.666667c-13.013333 90.069333-25.856 333.333333 165.290667 524.501333 191.146667 191.146667 434.432 178.325333 524.501333 165.290667v-184.32l-189.269333-31.530667-28.586667 57.130667A42.666667 42.666667 0 0 1 597.333333 725.333333v-42.666666c0 42.666667-0.021333 42.666667-0.042666 42.666666h-0.874667a101.056 101.056 0 0 1-5.76-0.256 188.864 188.864 0 0 1-14.016-1.493333 265.6 265.6 0 0 1-46.144-11.093333c-37.525333-12.522667-86.122667-37.12-133.994667-84.992-47.893333-47.872-72.469333-96.469333-84.970666-134.016a265.472 265.472 0 0 1-11.093334-46.122667 188.736 188.736 0 0 1-1.728-18.346667L298.666667 427.584v-0.874667c0-0.021333 0-0.042667 42.666666-0.042666h-42.666666a42.666667 42.666667 0 0 1 18.986666-35.498667l99.2-66.133333L355.114667 170.666667h-191.573334z m223.594667 276.736l77.056-51.370667a85.333333 85.333333 0 0 0 31.893333-102.677333L434.346667 138.965333A85.333333 85.333333 0 0 0 355.114667 85.333333H161.322667C122.56 85.333333 86.058667 112.256 79.701333 154.325333c-14.485333 95.68-34.176 378.197333 188.8 601.173334 222.976 222.976 505.493333 203.285333 601.173334 188.8C911.744 937.941333 938.666667 901.44 938.666667 862.677333v-186.538666a85.333333 85.333333 0 0 0-71.296-84.16l-189.269334-31.552a85.333333 85.333333 0 0 0-90.368 46.016l-14.762666 29.568a199.04 199.04 0 0 1-15.488-4.48c-26.453333-8.832-63.189333-26.922667-100.650667-64.362667-37.461333-37.461333-55.530667-74.197333-64.362667-100.650667a195.2 195.2 0 0 1-5.333333-19.114666z" fill="#bfbfbf" p-id="2450"></path></svg>