<?xml version="1.0" standalone="no"?><!DOCTYPE svg PUBLIC "-//W3C//DTD SVG 1.1//EN" "http://www.w3.org/Graphics/SVG/1.1/DTD/svg11.dtd"><svg t="1700529241996" class="icon" viewBox="0 0 1024 1024" version="1.1" xmlns="http://www.w3.org/2000/svg" p-id="1365" xmlns:xlink="http://www.w3.org/1999/xlink" width="200" height="200"><path d="M714.752 925.696c-2.56-8.192-5.632-18.944-5.632-27.136V373.248c0-37.888 29.696-68.096 68.096-68.096s68.096 29.696 68.096 68.096v525.312c0 10.752-2.56 18.944-5.632 27.136h128c22.016 0 40.96 18.944 40.96 40.96s-18.944 40.96-40.96 40.96H41.984c-22.016 0-40.96-18.944-40.96-40.96s18.944-40.96 40.96-40.96h122.368v-351.232c0-37.888 29.696-68.096 68.096-68.096s68.096 29.696 68.096 68.096v351.232h136.192V427.52c0-37.888 29.696-68.096 68.096-68.096 37.888 0 68.096 29.696 68.096 68.096v498.176h141.824zM815.104 87.04L760.832 32.768 948.736 0l-13.824 206.848L864.256 133.12c-76.288 62.464-206.848 171.52-233.984 171.52-35.328 2.56-152.576-103.424-209.408-155.136L145.408 375.808c-13.824 10.752-37.888 10.752-54.272 0-13.824-10.752-13.824-32.768 0-43.52l302.08-250.368c13.824-13.824 37.888-13.824 54.272 0 0 0 2.56 0 2.56 2.56l13.824 13.824 2.56 2.56c40.96 37.888 160.768 146.944 160.768 146.944 3.072-2.56 122.88-103.424 187.904-160.768z" fill="#0051BC" p-id="1366"></path></svg>