<?xml version="1.0" standalone="no"?><!DOCTYPE svg PUBLIC "-//W3C//DTD SVG 1.1//EN" "http://www.w3.org/Graphics/SVG/1.1/DTD/svg11.dtd"><svg t="1700530481147" class="icon" viewBox="0 0 1024 1024" version="1.1" xmlns="http://www.w3.org/2000/svg" p-id="9315" xmlns:xlink="http://www.w3.org/1999/xlink" width="200" height="200"><path d="M508.86 146.03c49.38 0 97.24 9.65 142.25 28.69 43.52 18.41 82.62 44.77 116.21 78.37 33.59 33.59 59.96 72.69 78.37 116.21 19.04 45.01 28.69 92.87 28.69 142.25s-9.65 97.24-28.69 142.25c-18.41 43.52-44.77 82.62-78.37 116.21-33.59 33.59-72.69 59.96-116.21 78.37-45.01 19.04-92.87 28.69-142.25 28.69s-97.24-9.65-142.25-28.69c-43.52-18.41-82.62-44.77-116.21-78.37-33.59-33.59-59.96-72.69-78.37-116.21-19.04-45.01-28.69-92.87-28.69-142.25s9.65-97.24 28.69-142.25c18.41-43.52 44.77-82.62 78.37-116.21s72.69-59.96 116.21-78.37c45-19.04 92.86-28.69 142.25-28.69m0-80C262.8 66.03 63.33 265.5 63.33 511.55S262.8 957.07 508.86 957.07 954.38 757.6 954.38 511.55 754.91 66.03 508.86 66.03z" fill="#1296db" p-id="9316"></path><path d="M699.82 477.63h-148.1V287.04c0-23.24-17.91-42.09-40-42.09s-40 18.84-40 42.09v228.5c0 0.34 0.02 0.67 0.02 1.01-0.01 0.36-0.02 0.72-0.02 1.08 0 22.09 15.88 40 35.48 40h192.62c19.59 0 35.48-17.91 35.48-40s-15.89-40-35.48-40z" fill="#1296db" p-id="9317"></path></svg>