<?xml version="1.0" standalone="no"?><!DOCTYPE svg PUBLIC "-//W3C//DTD SVG 1.1//EN" "http://www.w3.org/Graphics/SVG/1.1/DTD/svg11.dtd"><svg t="1700530343759" class="icon" viewBox="0 0 1024 1024" version="1.1" xmlns="http://www.w3.org/2000/svg" p-id="7010" xmlns:xlink="http://www.w3.org/1999/xlink" width="200" height="200"><path d="M831.941574 0h-210.251722l292.585931 292.585932v-208.119764A83.247906 83.247906 0 0 0 831.941574 0z" fill="#1296db" p-id="7011"></path><path d="M353.367639 463.34566a22.893174 22.893174 0 0 0-16.54806 5.786745q-7.918703 7.867942-7.918703 30.456551 0 22.842413 7.918703 30.45655a22.791652 22.791652 0 0 0 16.54806 6.243593 23.19774 23.19774 0 0 0 16.801864-5.735983c5.076092-5.076092 7.664899-15.228275 7.664898-30.456551s-2.588807-25.380459-7.664898-30.456551A22.842413 22.842413 0 0 0 353.367639 463.34566zM670.521855 731.363307a22.334804 22.334804 0 0 0 16.548059-5.786744c5.076092-5.076092 7.918703-15.228275 7.918703-30.710356s-2.588807-25.380459-7.715659-30.456551a23.19774 23.19774 0 0 0-16.751103-5.735983 22.537848 22.537848 0 0 0-16.54806 5.735983q-7.918703 7.817181-7.918703 30.456551c0 15.228275 2.639568 25.380459 7.918703 30.456551a22.487087 22.487087 0 0 0 16.54806 6.040549z" fill="#1296db" p-id="7012"></path><path d="M515.498011 0H165.552242C147.17679 0 109.715232 40.253408 109.715232 55.83701v889.331284c0 46.243196 26.040351 78.628662 64.009518 78.628662h666.186288c51.776136 0 74.364745-33.248401 74.364745-76.141377V402.990928zM282.302353 582.735339q-26.040351-26.801765-26.040351-82.94334 0-55.83701 26.091112-82.791057T353.367639 390.097655c30.456551 0 54.771031 8.933922 72.131264 26.751004s26.040351 45.684826 26.040351 82.94334-8.680117 64.821692-26.040351 82.791058-40.964061 26.954047-70.659198 26.954047q-46.344718 0-72.537352-26.801765z m90.811283 221.825212l220.60695-414.462896 57.004511 24.365241-218.779557 414.462896z m368.27046-26.903286q-26.040351 26.954047-70.608437 26.903286-46.141675 0-72.182025-26.903286t-25.98959-82.94334q0-55.83701 26.091112-82.689536t71.065285-26.903287q45.684826 0 71.522134 26.903287t26.091111 82.689536q0.253805 56.040054-25.837307 82.94334z" fill="#1296db" p-id="7013"></path></svg>